<?xml version="1.0" standalone="no"?>
<!DOCTYPE svg PUBLIC "-//W3C//DTD SVG 1.1//EN" "http://www.w3.org/Graphics/SVG/1.1/DTD/svg11.dtd">

<svg width="135" height="50" viewBox="0 0 135 50" preserveAspectRatio="none" 
  xmlns="http://www.w3.org/2000/svg"
  xmlns:xlink="http://www.w3.org/1999/xlink">


<polyline points="0.0, 37.493081952645845 0.7988165680473372, 37.46293873620694 1.5976331360946745, 42.680745589879926 2.396449704142012, 44.796273672867244 3.195266272189349, 41.9010624561054 3.994082840236686, 42.873965952934526 4.792899408284024, 39.30214727087282 5.591715976331361, 36.45827849341023 6.390532544378698, 41.25276925211574 7.189349112426036, 39.21925010945325 7.988165680473372, 37.065513878843404 8.78698224852071, 40.17158048259764 9.585798816568047, 41.73634411830735 10.384615384615385, 43.28936549329085 11.183431952662723, 43.22251949203417 11.982248520710058, 39.88082891453763 12.781065088757396, 41.545268341153665 13.579881656804734, 35.27948189137009 14.378698224852071, 36.096520094398066 15.177514792899409, 22.706156479522257 15.976331360946745, 25.77931284368271 16.775147928994084, 29.807963758834454 17.57396449704142, 30.287246816681524 18.37278106508876, 28.239448829101548 19.171597633136095, 29.065416727158905 19.970414201183434, 24.818399824742652 20.76923076923077, 25.844629712861977 21.56804733727811, 22.855611494196378 22.366863905325445, 23.319744856354905 23.16568047337278, 9.614430148635378 23.964497041420117, 3.846065208547958 24.763313609467456, 6.625395228589516 25.562130177514792, 7.986365032669338 26.36094674556213, 6.178270988981962 27.159763313609467, 6.616075973051284 27.958579881656807, 5.2328099314619365 28.757396449704142, 4.570489867665257 29.55621301775148, 4.425662003593202 30.355029585798817, 0.0 31.153846153846157, 1.7258187222141188 31.95266272189349, 5.329010544773018 32.751479289940825, 6.233185505007705 33.55029585798817, 4.632805821948621 34.349112426035504, 0.9992801419234042 35.14792899408284, 6.499245252936066 35.94674556213018, 9.8699673987706 36.74556213017752, 6.842063611023268 37.54437869822485, 10.98201066139036 38.34319526627219, 9.969523576305692 39.142011834319526, 7.6769899826010155 39.94082840236687, 15.339322313065718 40.7396449704142, 11.633098997747199 41.53846153846154, 11.333967924433349 42.337278106508876, 9.024808628558999 43.13609467455622, 11.84878529542189 43.93491124260355, 10.374322214015288 44.73372781065089, 9.017862132414038 45.532544378698226, 10.187425100870437 46.33136094674556, 16.035384597321737 47.1301775147929, 11.123131942017052 47.928994082840234, 8.911304219315012 48.72781065088758, 10.804892384330604 49.52662721893491, 11.350898668306646 50.32544378698225, 11.81369578610173 51.124260355029584, 14.234217481124043 51.92307692307693, 12.469515433349809 52.72189349112426, 11.561024299986055 53.5207100591716, 12.651941102196204 54.319526627218934, 9.45568591264759 55.11834319526627, 11.263430984844634 55.91715976331361, 12.87523507911444 56.71597633136094, 12.44568162218565 57.514792899408285, 13.837436011918298 58.31360946745562, 14.502937200763514 59.11242603550296, 17.38428547991438 59.91124260355029, 17.31798105307223 60.710059171597635, 15.04667708622606 61.50887573964497, 14.595461006096885 62.307692307692314, 14.284678232516063 63.10650887573964, 15.22855783271691 63.90532544378698, 15.942889313765713 64.70414201183432, 19.738837794947674 65.50295857988165, 21.29995713054714 66.30177514792899, 24.681994493265183 67.10059171597634, 25.115338299547357 67.89940828402366, 25.242311961047708 68.69822485207101, 24.439452253850302 69.49704142011834, 24.196159279134708 70.29585798816568, 25.091026563072855 71.09467455621302, 25.865691378213757 71.89349112426036, 25.945508352675205 72.6923076923077, 22.54488112918638 73.49112426035504, 21.34615449006709 74.28994082840237, 22.177247596639052 75.0887573964497, 23.6157821319739 75.88757396449704, 21.057638418540435 76.68639053254438, 19.497765859439387 77.48520710059172, 19.297172404390462 78.28402366863905, 18.291896850680654 79.0828402366864, 18.612597468401134 79.88165680473374, 18.408409294184402 80.68047337278107, 19.21693824607706 81.4792899408284, 18.16498427639096 82.27810650887574, 18.373904754469 83.07692307692308, 19.1069908052305 83.87573964497041, 11.860372861875597 84.67455621301775, 12.552768860464065 85.4733727810651, 12.845374745961527 86.27218934911244, 11.565345240123172 87.07100591715975, 6.584179269422255 87.8698224852071, 1.110212551392548 88.66863905325444, 3.4291159233495545 89.46745562130178, 4.958618373037656 90.26627218934911, 5.674323428057934 91.06508875739645, 4.171835879349706 91.8639053254438, 5.817630171494067 92.66272189349112, 7.953462338367642 93.46153846153845, 8.186595470737437 94.2603550295858, 8.923926549542813 95.05917159763314, 9.016409411991107 95.85798816568047, 20.549728355793146 96.65680473372781, 18.393322465901477 97.45562130177515, 18.702750189723453 98.2544378698225, 21.36222965067906 99.05325443786982, 21.575171390829205 99.85207100591715, 18.140607511851226 100.6508875739645, 19.260771849617637 101.44970414201183, 15.870550400027096 102.24852071005917, 16.72194962046179 103.04733727810651, 25.15914224081277 103.84615384615385, 25.80616826963243 104.64497041420118, 24.15103097503691 105.44378698224853, 23.79927789587322 106.24260355029585, 21.867111637482378 107.0414201183432, 19.71677659405726 107.84023668639053, 19.683003018161944 108.63905325443787, 20.519517329374313 109.43786982248521, 20.11367939916713 110.23668639053254, 20.337909315864238 111.03550295857988, 23.052781620828615 111.83431952662723, 22.563477392839996 112.63313609467457, 33.12471515612949 113.43195266272188, 37.40457687481303 114.23076923076923, 36.788264221642024 115.02958579881657, 36.806864669966934 115.82840236686391, 35.31071416868121 116.62721893491124, 38.88701410024998 117.42603550295858, 43.65270740660424 118.22485207100593, 40.7020977042772 119.02366863905324, 42.163099095786826 119.82248520710058, 42.326019703444814 120.62130177514793, 41.71234146628686 121.42011834319527, 39.601246511668165 122.2189349112426, 38.213280452940666 123.01775147928994, 43.12186088254993 123.81656804733728, 40.86322435675621 124.61538461538463, 41.3790332879737 125.41420118343194, 38.02297091764497 126.21301775147928, 38.56263536306755 127.01183431952663, 41.203368290211856 127.81065088757396, 41.84833081813109 128.60946745562129, 40.604373203851665 129.40828402366864, 42.94789181787549 130.20710059171597, 50.0 131.0059171597633, 40.94630638122223 131.80473372781066, 41.81065869026529 132.60355029585799, 40.008713637537255 133.40236686390534, 39.80703138963712 134.20118343195267, 39.118934980564674" fill="none" stroke="#ff3a33" stroke-width="1.25"/>

</svg>