<?xml version="1.0" standalone="no"?>
<!DOCTYPE svg PUBLIC "-//W3C//DTD SVG 1.1//EN" "http://www.w3.org/Graphics/SVG/1.1/DTD/svg11.dtd">

<svg width="135" height="50" viewBox="0 0 135 50" preserveAspectRatio="none" 
  xmlns="http://www.w3.org/2000/svg"
  xmlns:xlink="http://www.w3.org/1999/xlink">


<polyline points="0.0, 21.78207461977068 0.8035714285714285, 12.990911242698678 1.607142857142857, 38.71756924243645 2.4107142857142856, 17.65432916824571 3.214285714285714, 18.412831143118215 4.017857142857142, 19.04695508879134 4.821428571428571, 0.0 5.625, 28.37040591488529 6.428571428571428, 35.01407314372551 7.232142857142857, 35.94936547456499 8.035714285714285, 35.84138899823656 8.839285714285715, 31.272942697726315 9.642857142857142, 23.32791697758493 10.446428571428571, 19.56668915244373 11.25, 30.850394093696774 12.053571428571429, 37.42111836971213 12.857142857142856, 20.41752865520006 13.660714285714286, 18.83052543883141 14.464285714285714, 22.148560591134334 15.267857142857142, 19.96701257187637 16.07142857142857, 20.27193394056792 16.875, 15.112778849605194 17.67857142857143, 20.893409134040997 18.482142857142858, 20.90023001455502 19.285714285714285, 23.217164301981896 20.089285714285715, 15.481331175991519 20.892857142857142, 12.302843889738966 21.696428571428573, 22.77980263639465 22.5, 10.181194705526742 23.303571428571427, 37.77139759177674 24.107142857142858, 21.840138751610517 24.91071428571429, 14.918998105055934 25.71428571428571, 38.890416060643155 26.517857142857142, 50.0 27.321428571428573, 36.146797073658085 28.125, 23.242858918070016 28.928571428571427, 21.064959254913486 29.732142857142858, 18.57740119141779 30.535714285714285, 23.45914685043858 31.339285714285715, 21.316754456869862 32.14285714285714, 22.66770564196719 32.94642857142857, 24.820674738806826 33.75, 23.28777064108445 34.55357142857142, 27.121388016974368 35.35714285714286, 22.245175365669308 36.160714285714285, 23.74337347792239 36.964285714285715, 22.779618189811497 37.767857142857146, 26.339895428211374 38.57142857142857, 23.70719253491 39.375, 11.31038343475314 40.17857142857143, 20.381632577721675 40.982142857142854, 23.258599605465193 41.785714285714285, 11.825166087028869 42.589285714285715, 24.013527801792122 43.392857142857146, 20.003426346838342 44.19642857142857, 29.101037740827845 45.0, 37.01234366560849 45.80357142857143, 36.657930539677025 46.607142857142854, 27.109618108097745 47.410714285714285, 19.412171451707934 48.214285714285715, 23.84838679716079 49.01785714285714, 14.657104750974337 49.82142857142858, 26.903802243978813 50.625, 28.020615311107868 51.42857142857142, 20.158699697924334 52.23214285714286, 24.136021070879487 53.035714285714285, 19.472368143687056 53.839285714285715, 27.50900810631168 54.642857142857146, 25.499931417342463 55.44642857142857, 25.05693471278271 56.25, 14.628672626117057 57.05357142857143, 29.919082383354578 57.857142857142854, 24.482665414579355 58.660714285714285, 32.81605292330791 59.464285714285715, 22.31152963281435 60.267857142857146, 23.29429728960016 61.07142857142857, 18.94957991451765 61.875, 20.9412152027107 62.67857142857143, 21.436402010323725 63.482142857142854, 22.7948605955866 64.28571428571428, 21.00948824608168 65.08928571428572, 23.50267395884093 65.89285714285714, 19.876157812620505 66.69642857142857, 25.122441257315238 67.5, 22.399203514426066 68.30357142857143, 25.979291486574706 69.10714285714285, 23.295550669357652 69.91071428571429, 22.28398726492 70.71428571428572, 25.266040163970537 71.51785714285714, 18.38481833903206 72.32142857142857, 19.87423498426285 73.125, 25.868990397404506 73.92857142857143, 24.45810790498581 74.73214285714286, 23.53319904215993 75.53571428571429, 19.704166690038775 76.33928571428571, 25.568768087179127 77.14285714285714, 23.3364323647632 77.94642857142857, 19.475542559377796 78.75, 29.77835063219885 79.55357142857143, 24.082728135308912 80.35714285714286, 18.843917565483743 81.16071428571428, 25.243680047539495 81.96428571428571, 17.446159610495602 82.76785714285715, 32.592946565285665 83.57142857142857, 32.332958543469296 84.375, 23.455688119620124 85.17857142857143, 30.546821112113843 85.98214285714285, 24.144493568407988 86.78571428571429, 41.1607729659141 87.58928571428572, 21.634026128570778 88.39285714285714, 25.357965490081195 89.19642857142857, 13.441314062427134 90.0, 23.073586706537068 90.80357142857143, 28.496085975592354 91.60714285714286, 10.880311520095542 92.41071428571429, 20.496312150055974 93.21428571428571, 23.04287063940523 94.01785714285714, 21.84503215446158 94.82142857142857, 30.03481884889556 95.625, 47.967053517265704 96.42857142857143, 21.272035202723828 97.23214285714286, 29.12136023030515 98.03571428571428, 22.081017033805537 98.83928571428571, 27.743572043513065 99.64285714285715, 17.374450447448346 100.44642857142857, 23.434145005629773 101.25, 22.77862723306409 102.05357142857143, 26.164695579905672 102.85714285714285, 28.458157831439436 103.66071428571429, 41.02624069429334 104.46428571428572, 25.999596856722988 105.26785714285714, 21.414771086998673 106.07142857142857, 10.56917804150432 106.875, 21.566520788281053 107.67857142857143, 28.38643429255574 108.48214285714286, 33.81342416859346 109.28571428571429, 30.779149798857862 110.08928571428571, 33.8892027977725 110.89285714285714, 19.395386426184064 111.69642857142857, 28.59826880724732 112.5, 21.72150805119677 113.30357142857143, 28.700184469365492 114.10714285714286, 23.865984526476435 114.91071428571428, 17.266442960374533 115.71428571428571, 32.36372203783955 116.51785714285715, 25.987702743999012 117.32142857142857, 38.82173190290055 118.125, 35.378558639981286 118.92857142857143, 23.357492019132692 119.73214285714285, 16.36982795702243 120.53571428571429, 33.26760599778834 121.33928571428572, 7.280670460427041 122.14285714285714, 39.31764296872601 122.94642857142857, 45.143900833304016 123.75, 26.31452681934104 124.55357142857143, 15.348769309348517 125.35714285714286, 20.658058478215647 126.16071428571429, 26.291902356067236 126.96428571428571, 36.78742041552262 127.76785714285714, 16.06860839486146 128.57142857142856, 26.183429072901927 129.375, 19.28930940258658 130.17857142857144, 33.79969410857976 130.98214285714286, 7.362251905520218 131.78571428571428, 29.297325166757215 132.5892857142857, 14.366979797092672 133.39285714285714, 28.27289939815733 134.19642857142858, 18.428071651047283" fill="none" stroke="#b91c1c" stroke-width="1.25"/>

</svg>