<?xml version="1.0" standalone="no"?>
<!DOCTYPE svg PUBLIC "-//W3C//DTD SVG 1.1//EN" "http://www.w3.org/Graphics/SVG/1.1/DTD/svg11.dtd">

<svg width="135" height="50" viewBox="0 0 135 50" preserveAspectRatio="none" 
  xmlns="http://www.w3.org/2000/svg"
  xmlns:xlink="http://www.w3.org/1999/xlink">


<polyline points="0.0, 27.905416598038617 0.8035714285714285, 34.285857658408645 1.607142857142857, 36.81525341980452 2.4107142857142856, 35.04158420763599 3.214285714285714, 33.891217378394735 4.017857142857142, 30.021639098230303 4.821428571428571, 32.911217732487195 5.625, 34.456952238954294 6.428571428571428, 36.411093909371445 7.232142857142857, 43.443309669174795 8.035714285714285, 41.297008749316454 8.839285714285715, 40.69367511518319 9.642857142857142, 43.10174190281106 10.446428571428571, 41.989809501233886 11.25, 37.06924454136413 12.053571428571429, 38.7563384573611 12.857142857142856, 34.41602546049358 13.660714285714286, 35.27217323309975 14.464285714285714, 34.27190020194717 15.267857142857142, 38.07728782364024 16.07142857142857, 43.781577350172746 16.875, 43.31925821576263 17.67857142857143, 39.82551474576987 18.482142857142858, 39.590478412059596 19.285714285714285, 33.436802365686496 20.089285714285715, 31.97646606087721 20.892857142857142, 32.4150133526944 21.696428571428573, 32.74347036338002 22.5, 34.749912708473765 23.303571428571427, 35.943535190665095 24.107142857142858, 38.68435560175057 24.91071428571429, 33.28200217463153 25.71428571428571, 28.869421883992025 26.517857142857142, 32.3967369957487 27.321428571428573, 36.56269298919741 28.125, 36.39703111227798 28.928571428571427, 35.960256874643385 29.732142857142858, 33.48145290595197 30.535714285714285, 30.565268886271905 31.339285714285715, 32.642576788270055 32.14285714285714, 29.433383342730586 32.94642857142857, 27.999761128526146 33.75, 30.39862053366668 34.55357142857142, 29.01438558582166 35.35714285714286, 27.87808039586284 36.160714285714285, 30.54743104319365 36.964285714285715, 31.578511489061604 37.767857142857146, 34.84045628413486 38.57142857142857, 33.93039929888604 39.375, 39.93526925617053 40.17857142857143, 35.43638370757793 40.982142857142854, 39.175177774675646 41.785714285714285, 35.2071573557504 42.589285714285715, 34.84369220810442 43.392857142857146, 35.24380751486347 44.19642857142857, 32.32454111244212 45.0, 30.25583016233846 45.80357142857143, 35.801721639916025 46.607142857142854, 35.62051631526914 47.410714285714285, 35.30299100578564 48.214285714285715, 34.64000498843811 49.01785714285714, 31.930307795146078 49.82142857142858, 27.858644406749377 50.625, 29.560720570985644 51.42857142857142, 21.942879697343315 52.23214285714286, 23.279077018787273 53.035714285714285, 18.97848056933192 53.839285714285715, 21.659142018384514 54.642857142857146, 22.516067486620084 55.44642857142857, 21.34324439127688 56.25, 10.214054772882008 57.05357142857143, 8.837388057004516 57.857142857142854, 9.416625973947488 58.660714285714285, 13.965128232105384 59.464285714285715, 18.037200839840057 60.267857142857146, 13.942666375327542 61.07142857142857, 14.138477730333546 61.875, 11.031316967361153 62.67857142857143, 10.820630393189855 63.482142857142854, 11.976850285921495 64.28571428571428, 13.532442742180875 65.08928571428572, 13.90099969018785 65.89285714285714, 11.020215181014237 66.69642857142857, 12.102339004455805 67.5, 14.217055413172158 68.30357142857143, 16.321705486291354 69.10714285714285, 16.384080664746403 69.91071428571429, 16.2437870194297 70.71428571428572, 14.426488955357264 71.51785714285714, 18.046175780825415 72.32142857142857, 16.499446514736544 73.125, 12.738288029057976 73.92857142857143, 15.364315007736614 74.73214285714286, 17.826703637041224 75.53571428571429, 16.013792673620365 76.33928571428571, 13.927579859222682 77.14285714285714, 16.375070902469474 77.94642857142857, 12.3851269177701 78.75, 13.646551046355512 79.55357142857143, 13.161664533952367 80.35714285714286, 14.069812153649567 81.16071428571428, 14.2616049515116 81.96428571428571, 14.120386431838817 82.76785714285715, 13.02230840213435 83.57142857142857, 14.238291611350482 84.375, 15.2649219253452 85.17857142857143, 13.975750123211672 85.98214285714285, 12.54368287053963 86.78571428571429, 10.398169009681808 87.58928571428572, 5.984640000276956 88.39285714285714, 7.32495310774911 89.19642857142857, 7.290511482586851 90.0, 5.61387912981107 90.80357142857143, 0.5806709121306043 91.60714285714286, 1.3412341019130676 92.41071428571429, 0.0 93.21428571428571, 0.4975371237532969 94.01785714285714, 0.8469835305880571 94.82142857142857, 1.7887854657947215 95.625, 15.865440427148227 96.42857142857143, 10.001359824670223 97.23214285714286, 10.733525666668639 98.03571428571428, 13.324001942351135 98.83928571428571, 12.28177356449014 99.64285714285715, 13.765324119739732 100.44642857142857, 14.859795455973174 101.25, 12.966458306504128 102.05357142857143, 12.544091306819382 102.85714285714285, 23.964799083454665 103.66071428571429, 29.80356612741371 104.46428571428572, 26.84025311768878 105.26785714285714, 28.147062890212375 106.07142857142857, 26.79505482085188 106.875, 20.856886313448538 107.67857142857143, 20.43237040342063 108.48214285714286, 20.855707347257958 109.28571428571429, 20.675243451020688 110.08928571428571, 21.24034517255722 110.89285714285714, 27.1379091435564 111.69642857142857, 26.540386074861395 112.5, 35.35841972963626 113.30357142857143, 39.602177638584514 114.10714285714286, 40.221965085685774 114.91071428571428, 38.55547225349302 115.71428571428571, 35.85034472847211 116.51785714285715, 40.52106560217409 117.32142857142857, 44.74080484140798 118.125, 42.50386776731317 118.92857142857143, 45.761274661095285 119.73214285714285, 48.052040966335426 120.53571428571429, 48.79926472534353 121.33928571428572, 48.77857240565924 122.14285714285714, 46.785838460180486 122.94642857142857, 50.0 123.75, 44.62255637355913 124.55357142857143, 42.77768708175557 125.35714285714286, 36.671308064006666 126.16071428571429, 34.664675173944396 126.96428571428571, 37.27656724446661 127.76785714285714, 39.69560661329195 128.57142857142856, 38.67119725358181 129.375, 44.321387873226364 130.17857142857144, 46.92653485520029 130.98214285714286, 37.78095068046334 131.78571428571428, 35.20521045349071 132.5892857142857, 30.027655476611958 133.39285714285714, 31.062418946608112 134.19642857142858, 25.232904675467328" fill="none" stroke="#32ca5b" stroke-width="1.25"/>

</svg>